{"title":"Baat Ek Raat Ki 1962 2CD DvDrip ~ Dev Anand Classic ~ [RdY]","uid":6496653,"size":1465520128,"categoryP":"video","categoryS":"movies","magnet":"?xt=urn:btih:e2ed5bef670d05dfb1239da7768e238e772ee461&amp;dn=Baat+Ek+Raat+Ki+1962+2CD+DvDrip+%7E+Dev+Anand+Classic+%7E+%5BRdY%5D&amp;tr=udp%3A%2F%2Ftracker.openbittorrent.com%3A80&amp;tr=udp%3A%2F%2Fopen.demonii.com%3A1337&amp;tr=udp%3A%2F%2Ftracker.coppersurfer.tk%3A6969&amp;tr=udp%3A%2F%2Fexodus.desync.com%3A6969","seeders":0,"leechers":2,"uploader":"ilyas2000pk","files":-1,"time":1309097928,"description":"Actors :   Dev Anand, Waheeda Rehman, Jagdish Sethi, Chandrashekhar, Johny Walker, Asit Sen, Ulhas, Sabia Chatterjee\nDirector :   Shankar Mukherjee\nProducer :   Alankar Chitra\nMusic director :   S D Burman\nRelease date :   1962 \n\nTitle                            : Baat Ek Raat Ki 1962 2CD DvDrip ~ Dev Anand Classic ~ [RdY]\nFormat                           : AVI\nFormat/Info                      : Audio Video Interleave\nFile size                        : 1.36 GB\nOverall bit rate                 : 1 517 Kbps\nWriting application              : VirtualDubMod 1.5.10.2 (build 2542/release)\nWriting library                  : VirtualDubMod build 2542/release\n\nVideo\nFormat                           : MPEG-4 Visual\nFormat profile                   : Streaming Video@L1\nFormat settings, BVOP            : Yes\nFormat settings, QPel            : No\nFormat settings, GMC             : No warppoints\nFormat settings, Matrix          : Default\nCodec ID                         : XVID\nCodec ID/Hint                    : XviD\nBit rate                         : 1 315 Kbps\nWidth                            : 608 pixels\nHeight                           : 448 pixels\nDisplay aspect ratio             : 4/3\nFrame rate                       : 25.000 fps\nResolution                       : 24 bits\nColorimetry                      : 4.2.0\nScan type                        : Progressive\nBits/(Pixel*Frame)               : 0.193\nStream size                      : 606 MiB (87%)\nWriting library                  : XviD 50\n\nAudio\nFormat                           : AC-3\nFormat/Info                      : Audio Coding 3\nCodec ID                         : 2000\nBit rate mode                    : Constant\nBit rate                         : 192 Kbps\nChannel(s)                       : 2 channels\nChannel positions                : L R\nSampling rate                    : 48.0 KHz\nStream size                      : 88.5 MiB (13%)\nAlignment                        : Split accross interleaves\nInterleave, duration             : 40 ms (1.00 video frame)\nInterleave, preload duration     : 500 ms","torrent":{"xt":"urn:btih:e2ed5bef670d05dfb1239da7768e238e772ee461","amp;dn":"Baat+Ek+Raat+Ki+1962+2CD+DvDrip+%7E+Dev+Anand+Classic+%7E+%5BRdY%5D","amp;tr":["udp%3A%2F%2Ftracker.openbittorrent.com%3A80","udp%3A%2F%2Fopen.demonii.com%3A1337","udp%3A%2F%2Ftracker.coppersurfer.tk%3A6969","udp%3A%2F%2Fexodus.desync.com%3A6969"],"infoHash":"e2ed5bef670d05dfb1239da7768e238e772ee461","infoHashBuffer":{"type":"Buffer","data":[226,237,91,239,103,13,5,223,177,35,157,167,118,142,35,142,119,46,228,97]},"announce":[],"urlList":[]}}